<?xml version="1.0" encoding="utf-8"?>
<svg width="100px" height="100px" viewBox="0 0 100 100" version="1.1" xmlns:xlink="http://www.w3.org/1999/xlink" xmlns="http://www.w3.org/2000/svg">
  <defs>
    <filter id="filter_1">
      <feColorMatrix in="SourceGraphic" type="matrix" values="0 0 0 0 1 0 0 0 0 0 0 0 0 0 0 0 0 0 1 0" />
    </filter>
    <path d="M0 0L99.997 0L99.997 99.997L0 99.997L0 0Z" id="path_1" />
    <clipPath id="mask_1">
      <use xlink:href="#path_1" />
    </clipPath>
  </defs>
  <g id="like-h" filter="url(#filter_1)">
    <path d="M0 0L99.997 0L99.997 99.997L0 99.997L0 0Z" id="Background" fill="none" fill-rule="evenodd" stroke="none" />
    <g clip-path="url(#mask_1)">
      <g id="Group" transform="translate(0.00048828125 3.5116425)">
        <path d="M99.8312 27.7238C98.3715 11.658 87 0.00192276 72.7689 0.00192276C63.2878 0.00192276 54.6068 5.10399 49.7221 13.2811C44.8816 4.99822 36.5563 0 27.2272 0C12.998 0 1.62459 11.6561 0.166857 27.7219C0.0514693 28.4316 -0.421621 32.1663 1.01688 38.2568C3.09001 47.0417 7.87861 55.0323 14.8615 61.3594L49.699 92.9737L85.1346 61.3613C92.1175 55.0323 96.9061 47.0436 98.9792 38.2568C100.418 32.1682 99.9446 28.4335 99.8312 27.7238L99.8312 27.7238ZM95.2348 37.376C93.3425 45.3993 88.9558 52.7092 82.5614 58.5016L49.722 87.8005L17.4461 58.5093C11.0402 52.7053 6.65546 45.3974 4.76118 37.3741C3.39961 31.6105 3.95924 28.3546 3.96116 28.3335L3.99001 28.1392C5.24004 14.0639 15.0115 3.84627 27.2272 3.84627C36.2409 3.84627 44.1757 9.38488 47.9412 18.2986L49.7124 22.4968L51.4836 18.2986C55.1895 9.52142 63.5436 3.84819 72.7708 3.84819C84.9846 3.84819 94.7579 14.0658 96.0329 28.3239C96.0368 28.3546 96.5964 31.6124 95.2348 37.376L95.2348 37.376Z" id="Shape" fill="#000000" fill-rule="evenodd" stroke="none" />
      </g>
    </g>
  </g>
</svg>